<svg xmlns="http://www.w3.org/2000/svg" xmlns:xlink="http://www.w3.org/1999/xlink" width="1209" zoomAndPan="magnify" viewBox="0 0 906.75 906.74999" height="1209" preserveAspectRatio="xMidYMid meet" version="1.2"><defs><clipPath id="cabdaad6b6"><path d="M 47.425781 120.871094 L 859 120.871094 L 859 815.671875 L 47.425781 815.671875 Z M 47.425781 120.871094 "/></clipPath></defs><g id="27eac7631d"><path style="fill:none;stroke-width:4;stroke-linecap:butt;stroke-linejoin:miter;stroke:#ffffff;stroke-opacity:1;stroke-miterlimit:4;" d="M 14.998522 1.997764 L 372.02506 1.997764 " transform="matrix(0.749485,0,0,0.749485,17.790087,49.494894)"/><path style="fill-rule:nonzero;fill:#ffffff;fill-opacity:1;stroke-width:4;stroke-linecap:round;stroke-linejoin:round;stroke:#ffffff;stroke-opacity:1;stroke-miterlimit:4;" d="M 2.000008 -4.001149 L 13.997834 -4.001149 L 13.997834 8.001889 L 2.000008 8.001889 Z M 2.000008 -4.001149 " transform="matrix(0.749485,0,0,0.749485,17.790087,49.494894)"/><path style="fill-rule:nonzero;fill:#ffffff;fill-opacity:1;stroke-width:4;stroke-linecap:round;stroke-linejoin:round;stroke:#ffffff;stroke-opacity:1;stroke-miterlimit:4;" d="M 385.023573 -4.001149 L 373.025747 -4.001149 L 373.025747 8.001889 L 385.023573 8.001889 Z M 385.023573 -4.001149 " transform="matrix(0.749485,0,0,0.749485,17.790087,49.494894)"/><g clip-rule="nonzero" clip-path="url(#cabdaad6b6)"><path style=" stroke:none;fill-rule:nonzero;fill:#000000;fill-opacity:1;" d="M 221.605469 815.671875 C 217.347656 815.671875 213.0625 814.746094 209.0625 812.808594 C 199.015625 807.972656 192.644531 797.867188 192.644531 786.722656 L 192.644531 699.875 C 142.570312 699.875 47.84375 669.621094 47.84375 555.125 L 47.84375 265.621094 C 47.84375 215.566406 78.105469 120.871094 192.644531 120.871094 L 713.929688 120.871094 C 764 120.871094 858.730469 151.125 858.730469 265.621094 L 858.730469 555.125 C 858.730469 605.175781 834.519531 699.875 742.890625 699.875 L 376.570312 699.875 L 239.703125 809.332031 C 234.460938 813.53125 228.0625 815.671875 221.605469 815.671875 Z M 221.605469 641.972656 C 237.589844 641.972656 250.566406 654.914062 250.566406 670.921875 L 250.566406 726.476562 L 348.304688 648.3125 C 353.460938 644.203125 359.832031 641.972656 366.40625 641.972656 L 742.890625 641.972656 C 799.621094 641.972656 800.78125 558.566406 800.808594 555.035156 L 800.808594 265.621094 C 800.808594 183.898438 728.292969 178.945312 713.753906 178.773438 L 192.644531 178.773438 C 110.890625 178.773438 105.9375 251.234375 105.761719 265.769531 L 105.761719 555.125 C 105.761719 636.847656 178.25 641.800781 192.789062 641.972656 Z M 511.207031 410.371094 C 511.207031 378.382812 485.289062 352.472656 453.285156 352.472656 C 421.285156 352.472656 395.367188 378.382812 395.367188 410.371094 C 395.367188 442.363281 421.285156 468.273438 453.285156 468.273438 C 485.289062 468.273438 511.207031 442.363281 511.207031 410.371094 Z M 337.445312 410.371094 C 337.445312 378.382812 311.527344 352.472656 279.523438 352.472656 C 247.523438 352.472656 221.605469 378.382812 221.605469 410.371094 C 221.605469 442.363281 247.523438 468.273438 279.523438 468.273438 C 311.527344 468.273438 337.445312 442.363281 337.445312 410.371094 Z M 684.96875 410.371094 C 684.96875 378.382812 659.050781 352.472656 627.046875 352.472656 C 595.046875 352.472656 569.128906 378.382812 569.128906 410.371094 C 569.128906 442.363281 595.046875 468.273438 627.046875 468.273438 C 659.050781 468.273438 684.96875 442.363281 684.96875 410.371094 Z M 684.96875 410.371094 "/></g></g></svg>
