<svg xmlns="http://www.w3.org/2000/svg" xmlns:xlink="http://www.w3.org/1999/xlink" width="1209" zoomAndPan="magnify" viewBox="0 0 906.75 906.74999" height="1209" preserveAspectRatio="xMidYMid meet" version="1.2"><g id="7573b04090"><path style="fill:none;stroke-width:4;stroke-linecap:butt;stroke-linejoin:miter;stroke:#ffffff;stroke-opacity:1;stroke-miterlimit:4;" d="M 14.998522 1.997764 L 372.02506 1.997764 " transform="matrix(0.749485,0,0,0.749485,17.790087,49.494894)"/><path style="fill-rule:nonzero;fill:#ffffff;fill-opacity:1;stroke-width:4;stroke-linecap:round;stroke-linejoin:round;stroke:#ffffff;stroke-opacity:1;stroke-miterlimit:4;" d="M 2.000008 -4.001149 L 13.997834 -4.001149 L 13.997834 8.001889 L 2.000008 8.001889 Z M 2.000008 -4.001149 " transform="matrix(0.749485,0,0,0.749485,17.790087,49.494894)"/><path style="fill-rule:nonzero;fill:#ffffff;fill-opacity:1;stroke-width:4;stroke-linecap:round;stroke-linejoin:round;stroke:#ffffff;stroke-opacity:1;stroke-miterlimit:4;" d="M 385.023573 -4.001149 L 373.025747 -4.001149 L 373.025747 8.001889 L 385.023573 8.001889 Z M 385.023573 -4.001149 " transform="matrix(0.749485,0,0,0.749485,17.790087,49.494894)"/><path style=" stroke:none;fill-rule:nonzero;fill:#000000;fill-opacity:1;" d="M 452.960938 24.742188 C 224.046875 25.515625 41.085938 211.644531 44.078125 440.542969 C 44.210938 452.042969 44.832031 463.515625 45.9375 474.964844 C 47.042969 486.410156 48.625 497.792969 50.691406 509.105469 C 52.757812 520.417969 55.296875 531.625 58.308594 542.726562 C 61.320312 553.824219 64.792969 564.777344 68.730469 575.585938 C 72.667969 586.390625 77.054688 597.011719 81.886719 607.449219 C 86.722656 617.882812 91.988281 628.097656 97.683594 638.089844 C 103.378906 648.078125 109.484375 657.8125 116.003906 667.289062 C 122.523438 676.761719 129.429688 685.945312 136.722656 694.839844 C 137.867188 696.242188 138.902344 697.722656 139.828125 699.285156 C 140.753906 700.84375 141.554688 702.460938 142.238281 704.140625 C 142.917969 705.820312 143.472656 707.539062 143.898438 709.300781 C 144.324219 711.0625 144.613281 712.847656 144.773438 714.652344 C 144.929688 716.457031 144.953125 718.265625 144.839844 720.074219 C 144.726562 721.882812 144.480469 723.671875 144.101562 725.445312 C 143.722656 727.214844 143.210938 728.949219 142.570312 730.644531 C 141.929688 732.339844 141.167969 733.980469 140.285156 735.558594 L 104.9375 798.902344 C 95.136719 816.460938 111.105469 837.226562 130.59375 832.261719 L 250.3125 801.78125 C 252.382812 801.257812 254.484375 800.914062 256.617188 800.757812 C 258.75 800.601562 260.878906 800.632812 263.003906 800.851562 C 265.128906 801.070312 267.21875 801.472656 269.277344 802.058594 C 271.332031 802.644531 273.320312 803.40625 275.242188 804.339844 C 288.4375 810.75 301.941406 816.433594 315.753906 821.390625 C 329.566406 826.347656 343.601562 830.546875 357.863281 833.988281 C 372.128906 837.433594 386.535156 840.097656 401.085938 841.988281 C 415.636719 843.878906 430.246094 844.980469 444.914062 845.296875 C 675.070312 850.5 863.980469 666.59375 864.699219 436.382812 C 865.410156 208.691406 680.664062 23.976562 452.960938 24.742188 Z M 454.371094 794.839844 C 448.484375 794.839844 442.601562 794.695312 436.71875 794.40625 C 430.839844 794.121094 424.96875 793.6875 419.109375 793.109375 C 413.25 792.53125 407.40625 791.8125 401.582031 790.949219 C 395.757812 790.085938 389.960938 789.078125 384.183594 787.929688 C 378.410156 786.78125 372.667969 785.492188 366.957031 784.0625 C 361.246094 782.628906 355.570312 781.058594 349.9375 779.351562 C 344.304688 777.640625 338.714844 775.796875 333.171875 773.8125 C 327.625 771.828125 322.136719 769.710938 316.695312 767.457031 C 311.253906 765.203125 305.875 762.820312 300.550781 760.300781 C 295.230469 757.785156 289.972656 755.136719 284.777344 752.363281 C 279.585938 749.585938 274.464844 746.6875 269.414062 743.660156 C 264.363281 740.632812 259.390625 737.484375 254.496094 734.210938 C 249.601562 730.941406 244.789062 727.550781 240.058594 724.042969 C 235.328125 720.535156 230.6875 716.914062 226.136719 713.179688 C 221.585938 709.445312 217.128906 705.601562 212.765625 701.644531 C 208.402344 697.691406 204.140625 693.632812 199.976562 689.46875 C 195.8125 685.304688 191.753906 681.042969 187.800781 676.679688 C 183.847656 672.316406 180.003906 667.859375 176.265625 663.308594 C 172.53125 658.757812 168.910156 654.117188 165.402344 649.390625 C 161.894531 644.660156 158.507812 639.847656 155.234375 634.953125 C 151.964844 630.054688 148.816406 625.082031 145.789062 620.03125 C 142.761719 614.980469 139.859375 609.859375 137.085938 604.667969 C 134.308594 599.476562 131.664062 594.21875 129.144531 588.894531 C 126.628906 583.574219 124.242188 578.191406 121.988281 572.75 C 119.734375 567.3125 117.617188 561.820312 115.632812 556.277344 C 113.648438 550.734375 111.804688 545.144531 110.09375 539.507812 C 108.386719 533.875 106.816406 528.203125 105.386719 522.488281 C 103.953125 516.777344 102.664062 511.035156 101.515625 505.261719 C 100.367188 499.484375 99.359375 493.6875 98.496094 487.863281 C 97.632812 482.039062 96.914062 476.195312 96.335938 470.335938 C 95.757812 464.476562 95.324219 458.605469 95.035156 452.726562 C 94.746094 446.84375 94.601562 440.960938 94.601562 435.074219 C 94.601562 236.378906 255.679688 75.304688 454.371094 75.304688 C 652.296875 75.304688 812.890625 235.128906 814.132812 432.757812 C 815.382812 631.054688 652.675781 794.839844 454.371094 794.839844 Z M 454.371094 794.839844 "/><path style=" stroke:none;fill-rule:nonzero;fill:#000000;fill-opacity:1;" d="M 390.070312 260.164062 L 390.238281 260.492188 L 411.695312 303.050781 C 412.273438 304.191406 412.800781 305.355469 413.28125 306.542969 C 413.765625 307.726562 414.199219 308.929688 414.585938 310.148438 C 414.96875 311.371094 415.304688 312.605469 415.589844 313.851562 C 415.878906 315.097656 416.113281 316.355469 416.296875 317.621094 C 416.484375 318.886719 416.617188 320.160156 416.699219 321.433594 C 416.78125 322.710938 416.8125 323.988281 416.792969 325.269531 C 416.769531 326.550781 416.699219 327.824219 416.574219 329.097656 C 416.453125 330.371094 416.277344 331.640625 416.050781 332.898438 C 415.828125 334.15625 415.550781 335.40625 415.226562 336.644531 C 414.898438 337.882812 414.523438 339.101562 414.101562 340.308594 C 413.675781 341.515625 413.203125 342.707031 412.683594 343.875 C 412.164062 345.042969 411.597656 346.191406 410.984375 347.3125 C 410.371094 348.4375 409.714844 349.535156 409.015625 350.605469 C 408.3125 351.675781 407.570312 352.714844 406.785156 353.726562 C 406 354.738281 405.175781 355.714844 404.3125 356.660156 C 403.449219 357.601562 402.550781 358.511719 401.613281 359.382812 C 400.683594 360.25 399.785156 361.148438 398.925781 362.085938 C 398.066406 363.023438 397.246094 363.996094 396.460938 364.996094 C 395.679688 366 394.9375 367.035156 394.238281 368.097656 C 393.539062 369.160156 392.882812 370.246094 392.273438 371.363281 C 391.660156 372.476562 391.09375 373.617188 390.574219 374.777344 C 390.050781 375.9375 389.578125 377.117188 389.152344 378.316406 C 388.726562 379.511719 388.351562 380.726562 388.019531 381.957031 C 387.691406 383.183594 387.414062 384.425781 387.183594 385.675781 C 386.953125 386.925781 386.777344 388.183594 386.648438 389.449219 C 386.519531 390.714844 386.441406 391.984375 386.414062 393.257812 C 386.390625 394.527344 386.414062 395.800781 386.488281 397.070312 C 386.566406 398.339844 386.691406 399.605469 386.867188 400.863281 C 387.046875 402.125 387.273438 403.375 387.550781 404.617188 C 387.828125 405.855469 388.152344 407.085938 388.53125 408.300781 C 388.90625 409.515625 389.328125 410.714844 389.800781 411.894531 C 390.273438 413.078125 390.792969 414.238281 391.359375 415.375 C 404.238281 441.242188 426.554688 476.894531 460.613281 502.621094 C 462.507812 504.0625 464.503906 505.355469 466.59375 506.496094 C 468.6875 507.640625 470.851562 508.621094 473.089844 509.4375 C 475.328125 510.257812 477.613281 510.90625 479.945312 511.382812 C 482.28125 511.859375 484.640625 512.160156 487.019531 512.285156 C 489.398438 512.410156 491.773438 512.355469 494.144531 512.125 C 496.515625 511.894531 498.859375 511.488281 501.167969 510.90625 C 503.480469 510.324219 505.734375 509.578125 507.933594 508.65625 C 510.132812 507.738281 512.25 506.664062 514.289062 505.425781 L 528.105469 497.019531 C 529.652344 496.078125 531.246094 495.230469 532.886719 494.472656 C 534.527344 493.710938 536.207031 493.050781 537.921875 492.480469 C 539.640625 491.914062 541.382812 491.445312 543.152344 491.078125 C 544.921875 490.707031 546.707031 490.441406 548.507812 490.273438 C 550.308594 490.109375 552.113281 490.046875 553.917969 490.085938 C 555.726562 490.125 557.527344 490.265625 559.316406 490.511719 C 561.109375 490.753906 562.882812 491.097656 564.632812 491.546875 C 566.386719 491.992188 568.105469 492.535156 569.796875 493.175781 L 624.722656 514.0625 C 626.183594 514.617188 627.609375 515.242188 629.007812 515.9375 C 630.40625 516.632812 631.765625 517.394531 633.085938 518.222656 C 634.410156 519.050781 635.6875 519.941406 636.925781 520.894531 C 638.160156 521.851562 639.34375 522.863281 640.480469 523.933594 C 641.617188 525.003906 642.695312 526.128906 643.722656 527.304688 C 644.746094 528.480469 645.710938 529.707031 646.617188 530.976562 C 647.519531 532.25 648.359375 533.5625 649.136719 534.914062 C 649.914062 536.269531 650.621094 537.660156 651.257812 539.082031 C 651.898438 540.507812 652.46875 541.957031 652.964844 543.4375 C 653.460938 544.917969 653.882812 546.417969 654.234375 547.9375 C 654.582031 549.460938 654.855469 550.996094 655.054688 552.542969 C 655.253906 554.089844 655.375 555.644531 655.421875 557.203125 C 655.46875 558.765625 655.4375 560.324219 655.328125 561.878906 C 655.222656 563.4375 655.039062 564.984375 654.777344 566.523438 C 654.519531 568.0625 654.183594 569.585938 653.777344 571.089844 C 653.367188 572.597656 652.886719 574.082031 652.332031 575.539062 C 651.691406 577.214844 650.957031 578.855469 650.136719 580.449219 L 634.914062 609.953125 C 634.300781 611.144531 633.636719 612.304688 632.921875 613.441406 C 632.210938 614.574219 631.449219 615.679688 630.644531 616.75 C 629.839844 617.820312 628.988281 618.855469 628.09375 619.855469 C 627.203125 620.851562 626.269531 621.8125 625.292969 622.734375 C 624.320312 623.652344 623.308594 624.53125 622.257812 625.367188 C 621.210938 626.203125 620.128906 626.992188 619.015625 627.734375 C 617.898438 628.476562 616.753906 629.175781 615.582031 629.820312 C 614.410156 630.46875 613.210938 631.066406 611.984375 631.613281 C 610.761719 632.160156 609.515625 632.652344 608.25 633.09375 C 606.984375 633.535156 605.703125 633.921875 604.40625 634.253906 C 603.109375 634.589844 601.796875 634.867188 600.476562 635.089844 C 599.15625 635.3125 597.824219 635.480469 596.492188 635.589844 C 595.15625 635.699219 593.816406 635.753906 592.476562 635.753906 C 591.136719 635.75 589.796875 635.691406 588.464844 635.578125 C 587.128906 635.464844 585.800781 635.292969 584.476562 635.066406 C 583.15625 634.839844 581.847656 634.558594 580.550781 634.21875 C 494.285156 611.902344 288.691406 534.320312 272.125 299.730469 C 271.960938 297.414062 271.964844 295.097656 272.140625 292.78125 C 272.316406 290.46875 272.65625 288.179688 273.164062 285.914062 C 273.671875 283.648438 274.34375 281.433594 275.175781 279.265625 C 276.007812 277.097656 276.992188 275.003906 278.132812 272.980469 C 279.269531 270.957031 280.550781 269.027344 281.96875 267.191406 C 283.390625 265.355469 284.9375 263.632812 286.609375 262.023438 C 288.28125 260.410156 290.058594 258.929688 291.949219 257.582031 C 293.835938 256.230469 295.8125 255.023438 297.878906 253.960938 L 325.890625 239.570312 C 327.28125 238.859375 328.699219 238.214844 330.152344 237.640625 C 331.601562 237.066406 333.078125 236.5625 334.578125 236.132812 C 336.082031 235.703125 337.597656 235.351562 339.132812 235.070312 C 340.671875 234.789062 342.214844 234.585938 343.773438 234.457031 C 345.328125 234.328125 346.886719 234.277344 348.445312 234.300781 C 350.007812 234.328125 351.5625 234.429688 353.113281 234.605469 C 354.664062 234.785156 356.203125 235.039062 357.730469 235.367188 C 359.253906 235.695312 360.761719 236.097656 362.246094 236.574219 C 363.734375 237.050781 365.191406 237.601562 366.625 238.222656 C 368.058594 238.839844 369.457031 239.53125 370.820312 240.289062 C 372.1875 241.046875 373.511719 241.867188 374.792969 242.757812 C 376.078125 243.644531 377.316406 244.59375 378.507812 245.601562 C 379.695312 246.613281 380.835938 247.675781 381.921875 248.796875 C 383.007812 249.917969 384.035156 251.089844 385.007812 252.3125 C 385.976562 253.535156 386.886719 254.800781 387.730469 256.113281 C 388.578125 257.425781 389.359375 258.777344 390.070312 260.164062 Z M 390.070312 260.164062 "/></g></svg>
